
nColumns=19
nRows=61
DataType=double
version=3
OpenSimVersion=4.4-2022-10-11-798caa840
endheader
time	ground_force_calcn_r_vx	ground_force_calcn_r_vy	ground_force_calcn_r_vz	ground_force_calcn_r_px	ground_force_calcn_r_py	ground_force_calcn_r_pz	ground_force_calcn_r_mx	ground_force_calcn_r_my	ground_force_calcn_r_mz	ground_force_calcn_l_vx	ground_force_calcn_l_vy	ground_force_calcn_l_vz	ground_force_calcn_l_px	ground_force_calcn_l_py	ground_force_calcn_l_pz	ground_force_calcn_l_mx	ground_force_calcn_l_my	ground_force_calcn_l_mz
1.43	-164.759	272.69	-9.1737	-0.128241	0	-0.390801	-0.356071	0.589329	-0.0198259	0	0	0	0	0	0	0	0	0
1.44	-467.473	788.46	-41.111	-0.134107	0	-0.390291	-1.00215	1.69027	-0.0881324	-48.1353	54.6772	5.98767	-0.0692217	0	-0.7249060000000001	0.267238	-0.303557	-0.0332424
1.45	-371.055	773.072	-71.23909999999999	-0.143492	0	-0.387252	-1.45472	3.03082	-0.279293	-289.213	373.806	35.5306	-0.08964370000000001	0	-0.7403729999999999	-0.222207	0.287201	0.0272987
1.46	-231.866	766.612	-106.121	-0.18233	0	-0.383992	-1.25845	4.16077	-0.575972	-377.147	523.194	69.1858	-0.090943	0	-0.738312	-0.0236504	0.0328088	0.00433855
1.47	-75.6704	1203.52	-136.451	-0.24748	0	-0.387746	-0.0905618	1.44037	-0.163303	-237.998	462.403	60.2841	-0.112922	0	-0.726689	-0.0484959	0.09422170000000001	0.0122838
1.48	50.3845	1478.56	-126.247	-0.272677	0	-0.391719	-0.081631	-2.39551	0.204541	-122.026	712.042	15.541	-0.185121	0	-0.707741	-0.924891	5.39691	0.117792
1.49	-115.138	1152.76	-98.79819999999999	-0.256429	0	-0.391172	0.488489	-4.89071	0.419163	19.5167	1044.71	-23.3847	-0.220346	0	-0.698779	0.15786	8.450089999999999	-0.189146
1.5	-256.112	799.076	-70.78	-0.219302	0	-0.388397	1.4028	-4.37677	0.387682	-62.6436	850.212	11.822	-0.212515	0	-0.700426	-0.599212	8.13264	0.113083
1.51	-218.322	602.537	-72.43429999999999	-0.195602	0	-0.384479	1.14039	-3.14732	0.378357	-207.618	596.824	43.4864	-0.18315	0	-0.706217	-1.91718	5.51118	0.401561
1.52	-160.871	524.4880000000001	-76.42740000000001	-0.188612	0	-0.382591	0.669959	-2.18426	0.318286	-240.048	497.687	48.939	-0.16601	0	-0.709415	-2.3119	4.79322	0.47133
1.53	-150.19	499.958	-68.6807	-0.18509	0	-0.383152	0.677461	-2.25516	0.309797	-186.11	459.276	38.6326	-0.16858	0	-0.707442	-2.25313	5.5602	0.467704
1.54	-158.997	504.517	-59.229	-0.1834	0	-0.384656	0.8626509999999999	-2.7373	0.321353	-137.935	461.992	39.4555	-0.176142	0	-0.705414	-1.78569	5.98088	0.510786
1.55	-145.231	525.981	-54.3363	-0.187675	0	-0.386342	0.943195	-3.41596	0.352885	-118.155	502.676	48.2908	-0.183658	0	-0.704429	-1.4341	6.10124	0.58613
1.56	-106.554	570.095	-49.9406	-0.199555	0	-0.389101	0.843382	-4.51232	0.395281	-108.54	570.032	45.1858	-0.191036	0	-0.7027139999999999	-1.27175	6.67899	0.529435
1.57	-63.0108	616.694	-42.5843	-0.21379	0	-0.392666	0.595867	-5.83181	0.402702	-89.6917	620.9450000000001	40.0365	-0.19705	0	-0.701202	-1.03657	7.1763	0.462704
1.58	-28.5544	632.12	-37.878	-0.225551	0	-0.395763	0.301712	-6.67913	0.400228	-65.6095	640.4880000000001	41.4718	-0.201486	0	-0.7010960000000001	-0.726736	7.09449	0.45937
1.59	-16.794	597.963	-38.3954	-0.230652	0	-0.397211	0.195668	-6.96691	0.447347	-51.8293	627.098	45.1503	-0.202641	0	-0.70223	-0.546675	6.61439	0.476228
1.6	-18.527	546.663	-37.6481	-0.230004	0	-0.39761	0.246984	-7.28756	0.501887	-53.6983	603.02	44.91	-0.199846	0	-0.704058	-0.5578070000000001	6.26405	0.466516
1.61	-21.1057	510.438	-37.6268	-0.225441	0	-0.397298	0.324635	-7.85126	0.578753	-60.4668	587.198	43.1564	-0.194711	0	-0.706083	-0.644167	6.25556	0.459755
1.62	-29.7472	489.782	-38.6683	-0.218529	0	-0.396748	0.513592	-8.45618	0.667616	-64.8646	577.202	44.4115	-0.189317	0	-0.708195	-0.712055	6.33627	0.48753
1.63	-37.9413	485.46	-35.8522	-0.213437	0	-0.397246	0.719894	-9.21106	0.680256	-64.0741	571.3680000000001	46.7749	-0.185739	0	-0.709911	-0.73178	6.5255	0.534208
1.64	-38.4616	493.52	-31.7384	-0.211896	0	-0.398624	0.768377	-9.859439999999999	0.634062	-56.3435	576.73	49.0524	-0.184719	0	-0.710994	-0.667806	6.83564	0.581388
1.65	-32.0998	507.472	-31.1584	-0.212925	0	-0.40001	0.62736	-9.91807	0.608962	-45.9632	588.0650000000001	54.2237	-0.184781	0	-0.7121189999999999	-0.555956	7.11305	0.655874
1.66	-22.4763	524.799	-33.8694	-0.215382	0	-0.40118	0.404303	-9.44007	0.609241	-38.2389	594.404	60.6447	-0.184756	0	-0.713464	-0.472545	7.34547	0.74943
1.67	-13.5911	539.599	-36.7143	-0.218095	0	-0.402073	0.220914	-8.77078	0.596764	-35.0207	591.471	65.4628	-0.184428	0	-0.714785	-0.445795	7.52911	0.833307
1.68	-8.42939	548.086	-38.2529	-0.2203	0	-0.402647	0.12593	-8.188040000000001	0.571473	-34.5614	581.611	67.2064	-0.184294	0	-0.715741	-0.45966	7.73532	0.893833
1.69	-6.45883	548.622	-39.0766	-0.22204	0	-0.402971	0.08999939999999999	-7.64468	0.544507	-34.6575	571.138	65.2931	-0.184938	0	-0.716191	-0.488037	8.0426	0.91944
1.7	-6.70041	542.567	-39.0541	-0.223647	0	-0.403165	0.08795890000000001	-7.12249	0.512678	-33.2997	564.377	61.266	-0.186585	0	-0.716158	-0.491113	8.32358	0.903567
1.71	-7.50401	535.202	-38.2933	-0.225893	0	-0.403286	0.0920101	-6.56236	0.469532	-30.2662	560.079	57.7201	-0.188845	0	-0.7160260000000001	-0.459671	8.506259999999999	0.87663
1.72	-5.52274	531.622	-37.8598	-0.22933	0	-0.403561	0.0612939	-5.90019	0.420185	-26.544	556.333	56.4428	-0.191252	0	-0.716103	-0.412101	8.63719	0.876286
1.73	0.364773	532.652	-38.4448	-0.233793	0	-0.403758	-0.00345783	-5.04921	0.364434	-22.3156	551.058	57.8694	-0.193544	0	-0.716159	-0.357973	8.839740000000001	0.928305
1.74	8.87079	535.424	-39.7842	-0.238565	0	-0.404043	-0.0688898	-4.15806	0.308961	-18.7677	545.3680000000001	59.3202	-0.195281	0	-0.715851	-0.319338	9.2796	1.00935
1.75	18.3226	537.458	-40.4188	-0.243182	0	-0.404559	-0.118178	-3.46653	0.260696	-15.4096	542.234	58.9929	-0.197013	0	-0.71509	-0.279419	9.832190000000001	1.0697
1.76	26.8371	537.388	-40.5949	-0.247043	0	-0.405066	-0.147918	-2.96193	0.223747	-10.854	542.369	58.087	-0.199043	0	-0.714183	-0.206135	10.3005	1.10317
1.77	32.6763	534.994	-41.1286	-0.249956	0	-0.405493	-0.153839	-2.51874	0.193633	-5.98141	541.797	56.88	-0.201015	0	-0.713278	-0.11678	10.578	1.11052
1.78	36.2884	529.689	-41.5359	-0.252188	0	-0.405939	-0.147064	-2.14664	0.16833	-2.41241	538.859	55.9893	-0.20257	0	-0.712381	-0.0476739	10.6489	1.10646
1.79	38.7792	521.936	-41.2412	-0.253918	0	-0.406424	-0.141099	-1.89908	0.150057	0.522767	535.63	56.2325	-0.203725	0	-0.711813	0.0103049	10.5585	1.10847
1.8	40.8902	513.2670000000001	-40.3799	-0.255274	0	-0.406981	-0.143348	-1.79935	0.141559	2.8019	533	57.797	-0.204405	0	-0.711777	0.0540326	10.2785	1.11457
1.81	43.6638	505.608	-39.9614	-0.25612	0	-0.407371	-0.159662	-1.84882	0.146124	4.0708	530.771	59.3907	-0.204431	0	-0.7123429999999999	0.07469240000000001	9.73878	1.08972
1.82	46.4866	500.521	-40.4994	-0.255433	0	-0.407651	-0.183783	-1.97879	0.160113	5.03773	527.829	61.0492	-0.203492	0	-0.713391	0.0856976	8.97898	1.03852
1.83	45.8185	497.938	-42.6129	-0.251652	0	-0.407181	-0.199568	-2.16882	0.185605	5.89764	526.088	63.3465	-0.201014	0	-0.71495	0.0904177	8.06555	0.971176
1.84	40.4938	494.576	-46.2528	-0.244731	0	-0.405959	-0.192951	-2.35662	0.220391	4.14218	525.999	67.8798	-0.195855	0	-0.717421	0.0558526	7.0925	0.915282
1.85	33.6582	491.681	-49.7246	-0.235866	0	-0.404568	-0.174405	-2.54771	0.257655	-2.73537	526.1130000000001	73.6439	-0.187476	0	-0.720337	-0.0320922	6.17252	0.864013
1.86	26.1691	489.118	-52.8143	-0.225738	0	-0.403076	-0.144184	-2.6949	0.290992	-12.3297	525.525	78.0821	-0.177071	0	-0.723077	-0.124917	5.3243	0.79108
1.87	17.8998	485.96	-55.1829	-0.214788	0	-0.401728	-0.101876	-2.76583	0.314072	-19.4299	527.226	81.0749	-0.166613	0	-0.725058	-0.16823	4.56488	0.701972
1.88	9.27111	484.787	-57.4112	-0.203773	0	-0.400466	-0.0520017	-2.71917	0.32202	-23.0609	533.824	81.7889	-0.157118	0	-0.7260720000000001	-0.171931	3.97994	0.609779
1.89	1.61167	486.155	-60.6645	-0.193686	0	-0.399185	-0.0083754	-2.52641	0.315256	-27.542	538.648	83.4867	-0.147556	0	-0.7271300000000001	-0.172139	3.36658	0.521796
1.9	-6.09579	487.019	-64.6293	-0.184106	0	-0.398094	0.0273302	-2.18353	0.289763	-35.2051	538.842	87.8672	-0.137732	0	-0.728704	-0.167022	2.55641	0.416865
1.91	-13.9147	487.966	-68.00320000000001	-0.175506	0	-0.397287	0.0496884	-1.74249	0.242834	-43.7224	536.313	92.4297	-0.128144	0	-0.730366	-0.135491	1.66197	0.286429
1.92	-19.2341	491.459	-69.3665	-0.169147	0	-0.396859	0.0583367	-1.49059	0.210388	-50.9574	534.822	95.31570000000001	-0.119632	0	-0.731619	-0.08757180000000001	0.919107	0.163803
1.93	-22.7902	496.914	-69.21899999999999	-0.164747	0	-0.396781	0.0645425	-1.40727	0.19603	-55.0934	539.1369999999999	95.20869999999999	-0.113906	0	-0.732187	-0.0673455	0.659035	0.116382
1.94	-25.6596	502.512	-69.26430000000001	-0.161502	0	-0.396714	0.065564	-1.28399	0.17698	-56.4975	545.446	93.5757	-0.110235	0	-0.73226	-0.06339599999999999	0.612047	0.105002
1.95	-29.713	506.857	-69.5197	-0.158202	0	-0.396397	0.0608414	-1.03786	0.142351	-58.8108	549.278	91.9207	-0.106922	0	-0.732241	-0.0564524	0.527251	0.08823449999999999
1.96	-35.4737	510.355	-69.31399999999999	-0.154705	0	-0.395913	0.0531069	-0.7640400000000001	0.103768	-62.7941	551.293	89.77209999999999	-0.1036	0	-0.732284	-0.0482613	0.423705	0.06899569999999999
1.97	-41.3819	513.0359999999999	-67.8621	-0.151565	0	-0.395459	0.046622	-0.578	0.0764553	-66.78019999999999	551.681	87.3158	-0.100489	0	-0.73243	-0.0365516	0.301958	0.0477916
1.98	-45.7313	513.862	-65.70699999999999	-0.148705	0	-0.394975	0.0324841	-0.365009	0.0466733	-70.2067	549.201	84.41330000000001	-0.09751749999999999	0	-0.732538	-0.0172028	0.134571	0.0206838
1.99	-50.2681	511.478	-62.9889	-0.145888	0	-0.394295	0.00669532	-0.0681248	0.00838963	-74.8139	543.307	80.4141	-0.09445679999999999	0	-0.732744	-0.000607363	0.00441074	0.000652827
2	-55.1333	504.576	-59.2543	-0.143032	0	-0.39339	-0.0215538	0.197259	-0.0231648	-80.7285	531.173	75.09180000000001	-0.0912805	0	-0.732995	0.0168049	-0.110572	-0.0156316
2.01	-59.1471	490.651	-54.1025	-0.140198	0	-0.392445	-0.0475734	0.394642	-0.0435159	-85.315	509.54	68.68210000000001	-0.088142	0	-0.733426	0.0583824	-0.348686	-0.0470002
2.02	-61.7051	465.589	-47.401	-0.137476	0	-0.391249	-0.0739032	0.557629	-0.0567714	-84.7002	475.213	61.0139	-0.0852292	0	-0.734245	0.107658	-0.604019	-0.0775517
2.03	-60.9305	424.77	-39.2909	-0.134813	0	-0.389389	-0.0954338	0.665306	-0.0615402	-74.7405	423.074	50.5076	-0.0825564	0	-0.735497	0.136147	-0.770671	-0.0920045
